<svg width="139" height="65" viewBox="0 0 139 65" fill="none" xmlns="http://www.w3.org/2000/svg">
<path d="M27.8022 54.7207C27.5359 57.6079 24.9577 59.7774 22.1609 59.0125C19.0672 58.1664 16.118 56.8265 13.4308 55.0345C9.2815 52.2675 5.88749 48.5097 3.55581 44.101C1.22413 39.6923 0.0283452 34.7719 0.0766323 29.7848C0.124919 24.7977 1.41575 19.9014 3.83236 15.5387C6.24898 11.176 9.71511 7.48458 13.9172 4.79842C18.1193 2.11226 22.9248 0.516088 27.899 0.154301C32.8731 -0.207485 37.859 0.676528 42.4056 2.72637C45.3501 4.05392 48.0502 5.84333 50.4085 8.01717C52.5404 9.98237 52.0688 13.3188 49.7624 15.076C47.456 16.8332 44.1915 16.3134 41.8841 14.5575C40.7135 13.6667 39.4413 12.9077 38.09 12.2985C35.1347 10.9661 31.8939 10.3915 28.6607 10.6266C25.4275 10.8618 22.3039 11.8993 19.5725 13.6453C16.8412 15.3913 14.5882 17.7907 13.0174 20.6265C11.4466 23.4622 10.6075 26.6449 10.5761 29.8865C10.5448 33.1281 11.322 36.3263 12.8376 39.192C14.3532 42.0576 16.5593 44.5002 19.2564 46.2988C20.4896 47.1212 21.8078 47.7971 23.1839 48.317C25.8963 49.3417 28.0685 51.8334 27.8022 54.7207Z" fill="#03658C"/>
<path d="M19.3263 52.3367C18.0744 54.952 19.1754 58.1367 21.9687 58.9142C26.9286 60.2945 32.1908 60.3831 37.2444 59.1279C42.2979 57.8727 46.9072 55.3321 50.6447 51.7915C52.7496 49.7974 52.2325 46.4676 49.9024 44.7421C47.5723 43.0165 44.3152 43.5808 42.0319 45.3679C39.8859 47.0477 37.3959 48.2712 34.7133 48.9375C32.0306 49.6039 29.2575 49.6876 26.5749 49.2072C23.7208 48.6961 20.5782 49.7214 19.3263 52.3367Z" fill="#F59A4C"/>
<path d="M18 29C18 23.4772 22.4771 19 28 19V54C28 56.7614 25.7614 59 23 59C20.2386 59 18 56.7614 18 54V29Z" fill="#F59A4C"/>
<path d="M70.744 31.36C68.92 31.36 67.312 31.008 65.92 30.304C64.544 29.6 63.48 28.592 62.728 27.28C61.976 25.952 61.6 24.4 61.6 22.624C61.6 20.848 61.976 19.304 62.728 17.992C63.48 16.664 64.544 15.648 65.92 14.944C67.312 14.224 68.92 13.864 70.744 13.864C71.944 13.864 73.016 13.984 73.96 14.224C74.904 14.464 75.776 14.84 76.576 15.352V19.384C75.872 18.824 75.072 18.416 74.176 18.16C73.296 17.904 72.28 17.776 71.128 17.776C69.48 17.776 68.208 18.208 67.312 19.072C66.416 19.92 65.968 21.104 65.968 22.624C65.968 24.144 66.416 25.336 67.312 26.2C68.224 27.064 69.496 27.496 71.128 27.496C72.28 27.496 73.312 27.36 74.224 27.088C75.136 26.816 75.984 26.384 76.768 25.792V29.8C75.248 30.84 73.24 31.36 70.744 31.36ZM82.4318 31.36C80.9918 31.36 79.8238 31.016 78.9278 30.328C78.0478 29.624 77.6078 28.648 77.6078 27.4C77.6078 26.104 78.0318 25.112 78.8798 24.424C79.7438 23.72 80.9758 23.368 82.5758 23.368C83.1998 23.368 83.8238 23.44 84.4478 23.584C85.0718 23.712 85.6078 23.888 86.0558 24.112V23.872C86.0558 22.64 85.0478 22.024 83.0318 22.024C81.6238 22.024 80.3358 22.296 79.1678 22.84V19.936C79.6798 19.696 80.3518 19.504 81.1838 19.36C82.0158 19.2 82.8798 19.12 83.7758 19.12C85.9198 19.12 87.5358 19.552 88.6238 20.416C89.7278 21.264 90.2798 22.456 90.2798 23.992V31H86.3198V30.016C85.8878 30.432 85.3438 30.76 84.6878 31C84.0318 31.24 83.2798 31.36 82.4318 31.36ZM83.6798 28.768C84.1758 28.768 84.6398 28.672 85.0718 28.48C85.5038 28.272 85.8318 28.008 86.0558 27.688V26.68C85.3678 26.216 84.5838 25.984 83.7038 25.984C83.1438 25.984 82.7118 26.104 82.4078 26.344C82.1038 26.584 81.9518 26.936 81.9518 27.4C81.9518 27.832 82.0958 28.168 82.3838 28.408C82.6878 28.648 83.1198 28.768 83.6798 28.768ZM96.9308 31.36C96.0028 31.36 95.0348 31.264 94.0268 31.072C93.0188 30.896 92.2188 30.64 91.6268 30.304V27.208C92.2828 27.592 93.0668 27.912 93.9788 28.168C94.9068 28.408 95.7548 28.528 96.5228 28.528C97.0828 28.528 97.4908 28.488 97.7468 28.408C98.0028 28.328 98.1308 28.168 98.1308 27.928C98.1308 27.736 98.0428 27.584 97.8668 27.472C97.7068 27.344 97.4028 27.216 96.9548 27.088C96.5228 26.944 96.0188 26.792 95.4428 26.632C94.4668 26.344 93.6988 26.048 93.1388 25.744C92.5788 25.44 92.1628 25.056 91.8908 24.592C91.6188 24.128 91.4828 23.544 91.4828 22.84C91.4828 21.592 91.9708 20.664 92.9468 20.056C93.9388 19.432 95.2908 19.12 97.0028 19.12C97.8348 19.12 98.7068 19.208 99.6188 19.384C100.547 19.56 101.243 19.792 101.707 20.08V23.128C101.227 22.808 100.587 22.544 99.7868 22.336C99.0028 22.128 98.2668 22.024 97.5788 22.024C97.0348 22.024 96.6108 22.08 96.3068 22.192C96.0028 22.288 95.8508 22.464 95.8508 22.72C95.8508 22.96 96.0028 23.144 96.3068 23.272C96.6108 23.4 97.1548 23.56 97.9388 23.752C98.4508 23.88 98.6668 23.936 98.5868 23.92C99.6108 24.192 100.403 24.496 100.963 24.832C101.523 25.168 101.915 25.568 102.139 26.032C102.379 26.48 102.499 27.056 102.499 27.76C102.499 28.864 102.019 29.744 101.059 30.4C100.115 31.04 98.7388 31.36 96.9308 31.36ZM108.806 31.36C107.222 31.36 106.03 30.92 105.23 30.04C104.446 29.16 104.054 28 104.054 26.56V19.48H108.278V26.08C108.278 27.408 108.878 28.072 110.078 28.072C110.622 28.072 111.118 27.944 111.566 27.688C112.014 27.432 112.382 27.056 112.67 26.56V19.48H116.894V31H112.814V29.752C112.318 30.28 111.718 30.68 111.014 30.952C110.31 31.224 109.574 31.36 108.806 31.36ZM123.049 31.36C121.609 31.36 120.441 31.016 119.545 30.328C118.665 29.624 118.225 28.648 118.225 27.4C118.225 26.104 118.649 25.112 119.497 24.424C120.361 23.72 121.593 23.368 123.193 23.368C123.817 23.368 124.441 23.44 125.065 23.584C125.689 23.712 126.225 23.888 126.673 24.112V23.872C126.673 22.64 125.665 22.024 123.649 22.024C122.241 22.024 120.953 22.296 119.785 22.84V19.936C120.297 19.696 120.969 19.504 121.801 19.36C122.633 19.2 123.497 19.12 124.393 19.12C126.537 19.12 128.153 19.552 129.241 20.416C130.345 21.264 130.897 22.456 130.897 23.992V31H126.937V30.016C126.505 30.432 125.961 30.76 125.305 31C124.649 31.24 123.897 31.36 123.049 31.36ZM124.297 28.768C124.793 28.768 125.257 28.672 125.689 28.48C126.121 28.272 126.449 28.008 126.673 27.688V26.68C125.985 26.216 125.201 25.984 124.321 25.984C123.761 25.984 123.329 26.104 123.025 26.344C122.721 26.584 122.569 26.936 122.569 27.4C122.569 27.832 122.713 28.168 123.001 28.408C123.305 28.648 123.737 28.768 124.297 28.768ZM132.932 13.264H137.156V31H132.932V13.264Z" fill="#03658C"/>
<path d="M62.68 38.224H64.552V53.416H73.48V55H62.68V38.224ZM80.7012 55.36C79.4532 55.36 78.3412 55.112 77.3652 54.616C76.4052 54.12 75.6532 53.416 75.1092 52.504C74.5812 51.576 74.3172 50.496 74.3172 49.264C74.3172 48.048 74.5892 46.976 75.1332 46.048C75.6772 45.12 76.4292 44.4 77.3892 43.888C78.3652 43.376 79.4692 43.12 80.7012 43.12C81.9332 43.12 83.0292 43.376 83.9892 43.888C84.9652 44.4 85.7252 45.12 86.2692 46.048C86.8132 46.976 87.0852 48.048 87.0852 49.264C87.0852 50.496 86.8132 51.576 86.2692 52.504C85.7412 53.416 84.9892 54.12 84.0132 54.616C83.0532 55.112 81.9492 55.36 80.7012 55.36ZM80.7012 53.896C82.0772 53.896 83.1732 53.48 83.9892 52.648C84.8212 51.8 85.2372 50.672 85.2372 49.264C85.2372 47.84 84.8212 46.712 83.9892 45.88C83.1732 45.032 82.0772 44.608 80.7012 44.608C79.3252 44.608 78.2212 45.032 77.3892 45.88C76.5732 46.712 76.1652 47.84 76.1652 49.264C76.1652 50.672 76.5732 51.8 77.3892 52.648C78.2212 53.48 79.3252 53.896 80.7012 53.896ZM95.2559 55.36C94.0079 55.36 92.8959 55.112 91.9199 54.616C90.9599 54.12 90.2079 53.416 89.6639 52.504C89.1359 51.576 88.8719 50.496 88.8719 49.264C88.8719 48.048 89.1439 46.976 89.6879 46.048C90.2319 45.12 90.9839 44.4 91.9439 43.888C92.9199 43.376 94.0239 43.12 95.2559 43.12C96.4879 43.12 97.5839 43.376 98.5439 43.888C99.5199 44.4 100.28 45.12 100.824 46.048C101.368 46.976 101.64 48.048 101.64 49.264C101.64 50.496 101.368 51.576 100.824 52.504C100.296 53.416 99.5439 54.12 98.5679 54.616C97.6079 55.112 96.5039 55.36 95.2559 55.36ZM95.2559 53.896C96.6319 53.896 97.7279 53.48 98.5439 52.648C99.3759 51.8 99.7919 50.672 99.7919 49.264C99.7919 47.84 99.3759 46.712 98.5439 45.88C97.7279 45.032 96.6319 44.608 95.2559 44.608C93.8799 44.608 92.7759 45.032 91.9439 45.88C91.1279 46.712 90.7199 47.84 90.7199 49.264C90.7199 50.672 91.1279 51.8 91.9439 52.648C92.7759 53.48 93.8799 53.896 95.2559 53.896ZM104.516 37.264H106.364V55H104.516V37.264ZM106.772 49.192L112.412 43.48H114.764L109.1 49.192L115.316 55H112.964L106.772 49.192Z" fill="#F59A4C"/>
</svg>
